<?xml version="1.0" encoding="UTF-8"?>
<svg width="417.38" height="322" version="1.1" viewBox="0 0 417.38 322" xmlns="http://www.w3.org/2000/svg">
 <path d="m34.4 266.2c-4.933 0-9-1.467-12.2-4.4-3.2-2.8-4.8-7.333-4.8-13.6v-45.2c0-5.467-1.533-9.467-4.6-12s-7.333-3.8-12.8-3.8v-21.6c5.467 0 9.733-1.267 12.8-3.8s4.6-6.533 4.6-12v-45.2c0-6.267 1.6-10.8 4.8-13.6 3.2-2.933 7.267-4.4 12.2-4.4h21v19.2h-13.6v46c0 8.4-2.333 14.4-7 18-4.533 3.467-11.2 5.2-20 5.2v2.8c8.8 0 15.467 1.8 20 5.4 4.667 3.467 7 9.4 7 17.8v46h13.6v19.2z" fill="#fff"/>
 <path d="m382.98 86.6c4.933 0 9 1.467 12.2 4.4 3.2 2.8 4.8 7.333 4.8 13.6v45.2c0 5.467 1.533 9.467 4.6 12s7.333 3.8 12.8 3.8v21.6c-5.467 0-9.733 1.267-12.8 3.8s-4.6 6.533-4.6 12v45.2c0 6.267-1.6 10.8-4.8 13.6-3.2 2.933-7.267 4.4-12.2 4.4h-21v-19.2h13.6v-46c0-8.4 2.267-14.333 6.8-17.8 4.667-3.6 11.4-5.4 20.2-5.4v-2.8c-8.8 0-15.533-1.733-20.2-5.2-4.533-3.6-6.8-9.6-6.8-18v-46h-13.6v-19.2z" fill="#fff"/>
 <path d="m131.29 139.6h-25v-139.6h57.8c12.266 0 21.533 3.733 27.8 11.2 6.4 7.467 9.6 17.867 9.6 31.2 0 10.533-2 19.267-6 26.2-4 6.8-9.867 11.467-17.6 14l25.4 57h-27l-23-55h-22zm30.2-75.8c4.266 0 7.6-1.133 10-3.4 2.533-2.267 3.8-6.067 3.8-11.4v-12.4c0-5.333-1.267-9.133-3.8-11.4-2.4-2.267-5.734-3.4-10-3.4h-30.2v42z" fill="#ea2626"/>
 <path d="m252.87 139.6-41-139.6h25.8l23.6 86.4 5.2 30.8h2.8l5.2-30.8 23.4-86.4h25l-40.4 139.6zm-146.68 40.4h47.6c8.4 0 15.867 1.333 22.4 4 6.667 2.533 12.267 6.667 16.8 12.4 4.667 5.6 8.2 12.8 10.6 21.6s3.6 19.4 3.6 31.8-1.2 23-3.6 31.8-5.933 16.067-10.6 21.8c-4.533 5.6-10.133 9.733-16.8 12.4-6.533 2.533-14 3.8-22.4 3.8h-47.6zm47.6 117.8c8.533 0 15.133-2.6 19.8-7.8 4.667-5.333 7-13.267 7-23.8v-32.8c0-10.533-2.333-18.4-7-23.6-4.667-5.333-11.267-8-19.8-8h-22.6v96zm116.6 24.2c-10.4 0-19.6-1.867-27.6-5.6-7.867-3.867-14.667-9.533-20.4-17l16.4-15.8c4 5.467 8.667 9.667 14 12.6 5.333 2.8 11.333 4.2 18 4.2 14.933 0 22.4-6.8 22.4-20.4 0-5.6-1.333-9.867-4-12.8s-7.067-5.067-13.2-6.4l-12.2-2.4c-12.667-2.667-22-7.2-28-13.6s-9-15.333-9-26.8c0-13.333 3.933-23.4 11.8-30.2 8-6.8 19.333-10.2 34-10.2 10 0 18.533 1.667 25.6 5 7.2 3.2 13.333 8.267 18.4 15.2l-16.4 15.4c-3.467-4.667-7.4-8.133-11.8-10.4-4.4-2.4-9.8-3.6-16.2-3.6-7.067 0-12.267 1.4-15.6 4.2s-5 7.333-5 13.6c0 5.2 1.267 9.2 3.8 12 2.667 2.8 6.933 4.867 12.8 6.2l12.2 2.6c6.8 1.467 12.533 3.267 17.2 5.4 4.8 2.133 8.667 4.8 11.6 8 3.067 3.2 5.267 7 6.6 11.4 1.467 4.267 2.2 9.333 2.2 15.2 0 14.4-4.133 25.4-12.4 33-8.133 7.467-19.867 11.2-35.2 11.2z" fill="#fff"/>
</svg>
