{
  "accessors": [
    {
      "name": "Winged_Victory_1_0_positions",
      "componentType": 5126,
      "count": 18455,
      "min": [
        -75.17130279541016,
        0.05050000175833702,
        -86.32360076904297
      ],
      "max": [
        83.8114013671875,
        321.15179443359375,
        56.320499420166016
      ],
      "type": "VEC3",
      "bufferView": 0,
      "byteOffset": 0
    },
    {
      "name": "Winged_Victory_1_0_texcoords",
      "componentType": 5126,
      "count": 18455,
      "min": [
        0.0010999999940395355,
        0.0013000000035390258
      ],
      "max": [
        0.9990000128746033,
        0.991599977016449
      ],
      "type": "VEC2",
      "bufferView": 1,
      "byteOffset": 0
    },
    {
      "name": "Winged_Victory_1_0_indices",
      "componentType": 5123,
      "count": 100323,
      "min": [
        0
      ],
      "max": [
        18454
      ],
      "type": "SCALAR",
      "bufferView": 2,
      "byteOffset": 0
    }
  ],
  "asset": {
    "generator": "obj2gltf",
    "version": "2.0"
  },
  "buffers": [
    {
      "name": "statue",
      "byteLength": 569748,
      "uri": "data:application/octet-stream;base64,"
    }
  ],
  "bufferViews": [
    {
      "name": "bufferView_0",
      "buffer": 0,
      "byteLength": 221460,
      "byteOffset": 0,
      "byteStride": 12,
      "target": 34962
    },
    {
      "name": "bufferView_1",
      "buffer": 0,
      "byteLength": 147640,
      "byteOffset": 221460,
      "byteStride": 8,
      "target": 34962
    },
    {
      "name": "bufferView_2",
      "buffer": 0,
      "byteLength": 200648,
      "byteOffset": 369100,
      "target": 34963
    }
  ],
  "materials": [
    {
      "name": "Winged_Victory_Stamdard",
      "pbrMetallicRoughness": {
        "baseColorFactor": [
          0.5,
          0.5,
          0.5,
          1
        ],
        "metallicFactor": 0,
        "roughnessFactor": 1
      },
      "emissiveFactor": [
        0,
        0,
        0
      ],
      "alphaMode": "OPAQUE",
      "doubleSided": false
    }
  ],
  "meshes": [
    {
      "name": "Winged_Victory_1",
      "primitives": [
        {
          "attributes": {
            "POSITION": 0,
            "TEXCOORD_0": 1
          },
          "indices": 2,
          "material": 0,
          "mode": 4
        }
      ]
    }
  ],
  "nodes": [
    {
      "name": "Winged_Victory",
      "mesh": 0
    }
  ],
  "scene": 0,
  "scenes": [
    {
      "nodes": [
        0
      ]
    }
  ]
}
