<?xml version="1.0" standalone="no"?>
<!DOCTYPE svg PUBLIC "-//W3C//DTD SVG 20010904//EN"
 "http://www.w3.org/TR/2001/REC-SVG-20010904/DTD/svg10.dtd">
<svg version="1.0" xmlns="http://www.w3.org/2000/svg"
 width="834.000000pt" height="834.000000pt" viewBox="0 0 834.000000 834.000000"
 preserveAspectRatio="xMidYMid meet">
<metadata>
Created by potrace 1.14, written by Peter Selinger 2001-2017
</metadata>
<g transform="translate(0.000000,834.000000) scale(0.100000,-0.100000)"
fill="#000000" stroke="none">
<path d="M2125 5994 l0 -1397 240 1 c132 0 245 1 250 1 7 1 10 191 10 548 l0
548 218 1 219 1 13 -31 c7 -17 22 -51 33 -76 11 -25 41 -97 67 -160 26 -63 53
-128 62 -145 8 -16 16 -37 18 -45 2 -8 32 -82 68 -165 79 -188 80 -188 82
-200 2 -5 16 -39 32 -75 16 -36 40 -92 53 -125 13 -33 27 -64 31 -68 5 -7 298
-12 491 -8 44 1 57 12 38 31 -3 3 -97 212 -209 465 -112 253 -214 483 -227
510 -55 121 -60 145 -31 145 7 0 41 15 75 33 205 107 326 310 359 602 15 129
4 355 -21 445 -4 14 -12 43 -18 65 -26 97 -95 220 -167 298 -34 37 -160 127
-177 127 -5 0 -21 6 -35 14 -22 11 -56 23 -94 31 -5 2 -26 6 -45 11 -19 4
-328 9 -685 11 l-651 4 1 -1397z m1185 951 c73 -16 125 -55 157 -120 32 -63
36 -97 35 -297 0 -207 -11 -269 -59 -326 -65 -80 -113 -88 -498 -87 l-320 0
-1 410 c0 226 1 415 3 420 4 12 630 12 683 0z"/>
<path d="M4237 7383 c-4 -3 -2 -12 4 -20 6 -7 9 -13 5 -13 -3 0 0 -17 8 -37 8
-21 22 -65 31 -98 10 -33 24 -81 31 -106 8 -25 16 -54 18 -65 2 -10 9 -31 15
-46 6 -16 8 -28 5 -28 -2 0 2 -13 11 -30 9 -16 13 -30 11 -30 -3 0 2 -19 10
-42 9 -24 17 -50 19 -59 2 -9 13 -49 26 -90 12 -41 24 -80 25 -87 3 -15 34
-120 42 -142 3 -8 6 -20 7 -27 5 -19 56 -196 65 -223 18 -53 49 -156 54 -180
3 -14 28 -101 56 -195 29 -93 53 -177 55 -185 2 -8 18 -62 35 -120 18 -58 38
-130 46 -160 8 -30 18 -62 21 -70 3 -8 7 -19 8 -25 3 -10 45 -153 112 -380 20
-66 36 -124 37 -130 1 -5 7 -26 13 -45 6 -19 19 -61 28 -92 10 -32 23 -58 29
-59 16 -1 538 -1 561 0 16 1 24 13 37 59 9 31 35 120 57 197 23 77 44 151 47
164 3 13 9 32 15 43 5 10 7 18 5 18 -3 0 -1 12 5 28 6 15 12 34 14 42 2 8 35
125 75 260 39 135 73 254 75 264 5 22 24 84 32 106 3 8 8 24 10 35 2 11 10 41
18 66 9 25 17 54 20 65 2 10 29 105 60 209 31 105 58 198 60 208 2 10 15 55
28 100 14 45 27 91 30 102 3 11 26 92 52 180 26 88 48 168 50 178 2 9 6 21 9
25 3 5 7 19 10 33 3 13 15 56 26 94 12 39 23 77 25 85 2 8 16 56 30 105 15 50
30 98 32 108 5 16 -10 17 -247 15 -216 -3 -253 -5 -255 -18 -2 -8 -12 -49 -23
-90 -11 -41 -32 -120 -46 -175 -15 -55 -34 -122 -42 -150 -9 -27 -17 -59 -19
-70 -5 -24 -97 -365 -119 -440 -8 -27 -49 -176 -90 -330 -41 -154 -84 -316
-96 -360 -26 -97 -33 -132 -64 -320 -2 -11 -7 -39 -11 -63 -4 -23 -9 -54 -11
-70 -3 -15 -6 -34 -8 -42 -2 -8 -6 -37 -10 -65 -9 -55 -15 -92 -21 -115 -2 -8
-4 -20 -4 -27 -1 -10 -48 -9 -58 1 -2 1 -6 27 -9 57 -3 30 -8 57 -10 60 -2 4
-6 24 -9 45 -3 22 -7 50 -10 64 -11 53 -16 86 -19 110 -2 14 -6 41 -10 60 -8
46 -14 81 -26 160 -6 36 -19 94 -30 130 -19 65 -211 766 -214 785 -1 6 -10 35
-18 65 -9 30 -28 98 -42 150 -14 52 -39 145 -56 205 -16 61 -32 119 -34 130
-3 11 -17 63 -32 115 -14 52 -27 100 -28 105 -2 6 -8 29 -15 53 l-12 42 -253
0 c-139 0 -256 -3 -259 -7z"/>
<path d="M584 5645 c-79 -23 -184 -99 -184 -132 0 -7 -4 -13 -8 -13 -10 0 -28
-56 -38 -115 -4 -22 -8 -272 -9 -555 -1 -283 -5 -528 -9 -545 -26 -111 -131
-189 -271 -202 l-65 -6 0 -216 0 -216 47 -2 c143 -7 260 -90 290 -205 3 -13 7
-241 8 -508 3 -546 4 -593 17 -635 39 -126 129 -203 259 -222 30 -4 151 -8
269 -8 l215 1 1 192 2 192 -134 0 c-74 0 -135 3 -135 8 -1 4 -2 230 -3 502 -2
502 -8 583 -42 637 -8 12 -14 27 -14 34 0 20 -103 113 -150 136 -85 41 -162
59 -277 65 -31 2 -55 8 -58 16 -9 24 7 42 39 43 261 10 413 95 470 264 28 82
30 112 30 623 1 431 3 492 16 493 8 1 69 2 135 3 l120 1 0 190 0 190 -241 1
c-156 0 -255 -4 -280 -11z"/>
<path d="M7233 5466 l0 -192 116 0 c64 1 125 0 136 -2 20 -3 20 -11 20 -490
-1 -532 4 -597 53 -683 29 -49 76 -109 87 -109 4 0 19 -8 33 -19 60 -41 154
-67 282 -77 41 -3 77 -8 79 -10 7 -7 8 -44 2 -45 -3 -1 -24 -3 -46 -4 -67 -5
-138 -16 -190 -29 -59 -15 -154 -68 -192 -106 -41 -41 -90 -141 -100 -202 -3
-24 -7 -266 -8 -538 -1 -272 -3 -498 -4 -502 0 -5 -61 -8 -135 -8 l-133 0 0
-189 c0 -185 0 -189 21 -193 12 -2 120 -3 241 -2 269 1 322 14 407 94 37 35
76 116 83 175 4 27 7 276 8 553 1 570 2 580 70 658 21 24 45 44 52 44 7 0 18
6 24 14 12 14 99 35 161 40 l35 3 3 214 2 215 -72 11 c-40 6 -81 13 -90 15
-35 8 -117 70 -138 102 -45 74 -47 92 -47 648 -1 568 -3 591 -55 668 -31 45
-110 104 -161 120 -29 9 -121 14 -293 16 l-251 3 0 -193z"/>
<path d="M5339 3836 c-2 -2 -35 -6 -74 -10 -198 -17 -380 -90 -510 -203 -36
-31 -110 -127 -124 -161 -7 -17 -17 -32 -22 -32 -5 0 -9 -11 -9 -24 0 -14 -4
-27 -9 -30 -4 -3 -12 -20 -16 -38 -4 -18 -9 -37 -10 -43 -37 -131 -42 -340
-12 -485 20 -96 73 -212 130 -284 51 -64 153 -141 250 -190 132 -65 277 -107
533 -152 193 -34 307 -103 359 -217 22 -47 27 -74 29 -157 7 -241 -90 -374
-304 -414 -65 -13 -240 -13 -290 -1 -14 3 -36 8 -50 11 -46 9 -152 54 -205 88
-63 41 -179 148 -202 187 -10 16 -22 29 -29 29 -10 0 -58 -44 -252 -233 -87
-84 -88 -78 30 -196 122 -123 251 -206 403 -259 223 -79 484 -91 775 -37 137
25 294 108 395 210 155 155 227 357 227 635 0 146 -12 219 -51 330 -34 97 -66
146 -146 225 -73 72 -145 116 -268 165 -79 32 -112 42 -207 66 -17 4 -195 43
-225 49 -260 54 -356 111 -404 239 -30 80 -26 248 8 321 56 122 166 176 358
178 151 1 247 -18 344 -68 38 -20 100 -64 111 -80 4 -5 8 -7 8 -3 0 4 26 -20
57 -55 32 -34 61 -62 64 -62 4 0 60 50 124 110 65 61 135 126 157 147 39 35
39 37 24 65 -29 54 -211 222 -243 224 -5 0 -15 6 -23 13 -20 17 -156 78 -202
91 -5 2 -9 3 -10 5 -6 4 -47 12 -153 31 -55 10 -328 22 -336 15z"/>
<path d="M2123 3562 c0 -126 -3 -234 -7 -240 -4 -7 -4 -12 1 -12 4 0 8 -520 7
-1155 -1 -1056 0 -1155 15 -1156 91 -4 1037 0 1071 5 25 3 63 8 85 11 44 6 80
13 80 15 0 1 12 4 27 6 15 3 57 16 94 30 223 84 372 227 496 477 18 37 57 148
76 218 18 66 26 102 47 229 26 158 27 662 1 800 -2 14 -7 43 -10 65 -4 22 -11
60 -16 85 -6 25 -13 56 -16 69 -3 13 -9 32 -15 43 -5 10 -8 18 -5 18 3 0 -9
37 -25 82 -32 87 -81 182 -132 258 -36 53 -179 200 -195 200 -6 0 -12 4 -14 9
-8 23 -252 132 -303 136 -5 0 -23 4 -40 8 -16 4 -46 10 -65 14 -19 3 -288 8
-596 10 l-562 4 1 -229z m1107 -226 c89 -24 166 -68 225 -132 76 -80 114 -165
143 -319 9 -52 9 -915 0 -980 -11 -73 -14 -84 -37 -148 -35 -100 -81 -165
-156 -222 -116 -87 -189 -101 -525 -100 l-255 0 -2 957 -1 957 21 3 c12 2 135
2 272 2 200 -1 263 -5 315 -18z"/>
</g>
</svg>
